<mxfile host="Electron" agent="Mozilla/5.0 (Windows NT 10.0; Win64; x64) AppleWebKit/537.36 (KHTML, like Gecko) draw.io/27.0.2 Chrome/134.0.6998.205 Electron/35.3.0 Safari/537.36" version="27.0.2">
  <diagram name="Page-1" id="hTMHW3jCWr9rAptT6Wrz">
    <mxGraphModel dx="1332" dy="769" grid="1" gridSize="10" guides="1" tooltips="1" connect="1" arrows="1" fold="1" page="1" pageScale="1" pageWidth="827" pageHeight="1169" math="0" shadow="0">
      <root>
        <mxCell id="0" />
        <mxCell id="1" parent="0" />
        <mxCell id="Doy7S56j4sTmwYwDbzZg-18" style="edgeStyle=orthogonalEdgeStyle;rounded=0;orthogonalLoop=1;jettySize=auto;html=1;entryX=0.5;entryY=0;entryDx=0;entryDy=0;" edge="1" parent="1" source="DgRzAQDyQXtNezcEr9dz-1" target="Doy7S56j4sTmwYwDbzZg-8">
          <mxGeometry relative="1" as="geometry" />
        </mxCell>
        <mxCell id="DgRzAQDyQXtNezcEr9dz-1" value="" style="ellipse;fillColor=strokeColor;html=1;" parent="1" vertex="1">
          <mxGeometry x="75" y="80" width="40" height="40" as="geometry" />
        </mxCell>
        <mxCell id="Doy7S56j4sTmwYwDbzZg-2" style="edgeStyle=orthogonalEdgeStyle;rounded=0;orthogonalLoop=1;jettySize=auto;html=1;entryX=0.5;entryY=0;entryDx=0;entryDy=0;" edge="1" parent="1" source="DgRzAQDyQXtNezcEr9dz-3" target="Doy7S56j4sTmwYwDbzZg-1">
          <mxGeometry relative="1" as="geometry" />
        </mxCell>
        <mxCell id="DgRzAQDyQXtNezcEr9dz-3" value="Reservation" style="html=1;whiteSpace=wrap;" parent="1" vertex="1">
          <mxGeometry x="330" y="240" width="110" height="50" as="geometry" />
        </mxCell>
        <mxCell id="DgRzAQDyQXtNezcEr9dz-8" style="edgeStyle=orthogonalEdgeStyle;rounded=0;orthogonalLoop=1;jettySize=auto;html=1;entryX=0.5;entryY=0;entryDx=0;entryDy=0;" parent="1" source="DgRzAQDyQXtNezcEr9dz-4" target="DgRzAQDyQXtNezcEr9dz-7" edge="1">
          <mxGeometry relative="1" as="geometry" />
        </mxCell>
        <mxCell id="DgRzAQDyQXtNezcEr9dz-4" value="reservation erfassen" style="html=1;whiteSpace=wrap;" parent="1" vertex="1">
          <mxGeometry x="330" y="390" width="110" height="50" as="geometry" />
        </mxCell>
        <mxCell id="DgRzAQDyQXtNezcEr9dz-11" style="edgeStyle=orthogonalEdgeStyle;rounded=0;orthogonalLoop=1;jettySize=auto;html=1;entryX=0.5;entryY=0;entryDx=0;entryDy=0;" parent="1" source="DgRzAQDyQXtNezcEr9dz-7" target="DgRzAQDyQXtNezcEr9dz-10" edge="1">
          <mxGeometry relative="1" as="geometry" />
        </mxCell>
        <mxCell id="DgRzAQDyQXtNezcEr9dz-12" style="edgeStyle=orthogonalEdgeStyle;rounded=0;orthogonalLoop=1;jettySize=auto;html=1;entryX=0.5;entryY=1;entryDx=0;entryDy=0;" parent="1" source="DgRzAQDyQXtNezcEr9dz-7" target="DgRzAQDyQXtNezcEr9dz-13" edge="1">
          <mxGeometry relative="1" as="geometry">
            <mxPoint x="550" y="460" as="targetPoint" />
          </mxGeometry>
        </mxCell>
        <mxCell id="DgRzAQDyQXtNezcEr9dz-7" value="Erfassung Validieren" style="html=1;whiteSpace=wrap;" parent="1" vertex="1">
          <mxGeometry x="330" y="485" width="110" height="50" as="geometry" />
        </mxCell>
        <mxCell id="DgRzAQDyQXtNezcEr9dz-9" value="" style="ellipse;html=1;shape=endState;fillColor=#000000;strokeColor=#ff0000;" parent="1" vertex="1">
          <mxGeometry x="370" y="680" width="30" height="30" as="geometry" />
        </mxCell>
        <mxCell id="DgRzAQDyQXtNezcEr9dz-10" value="Erfassung bestätigen" style="html=1;whiteSpace=wrap;" parent="1" vertex="1">
          <mxGeometry x="330" y="590" width="110" height="50" as="geometry" />
        </mxCell>
        <mxCell id="DgRzAQDyQXtNezcEr9dz-14" style="edgeStyle=orthogonalEdgeStyle;rounded=0;orthogonalLoop=1;jettySize=auto;html=1;entryX=1;entryY=0.5;entryDx=0;entryDy=0;" parent="1" source="DgRzAQDyQXtNezcEr9dz-13" target="DgRzAQDyQXtNezcEr9dz-4" edge="1">
          <mxGeometry relative="1" as="geometry">
            <Array as="points">
              <mxPoint x="555" y="415" />
            </Array>
          </mxGeometry>
        </mxCell>
        <mxCell id="DgRzAQDyQXtNezcEr9dz-13" value="Error Anzeigen" style="html=1;whiteSpace=wrap;" parent="1" vertex="1">
          <mxGeometry x="500" y="435" width="110" height="50" as="geometry" />
        </mxCell>
        <mxCell id="DgRzAQDyQXtNezcEr9dz-28" style="edgeStyle=orthogonalEdgeStyle;rounded=0;orthogonalLoop=1;jettySize=auto;html=1;entryX=0.5;entryY=0;entryDx=0;entryDy=0;exitX=0.5;exitY=1;exitDx=0;exitDy=0;" parent="1" source="DgRzAQDyQXtNezcEr9dz-10" target="DgRzAQDyQXtNezcEr9dz-9" edge="1">
          <mxGeometry relative="1" as="geometry">
            <mxPoint x="495" y="940" as="sourcePoint" />
          </mxGeometry>
        </mxCell>
        <mxCell id="Doy7S56j4sTmwYwDbzZg-3" style="edgeStyle=orthogonalEdgeStyle;rounded=0;orthogonalLoop=1;jettySize=auto;html=1;entryX=0.5;entryY=0;entryDx=0;entryDy=0;" edge="1" parent="1" source="Doy7S56j4sTmwYwDbzZg-1" target="DgRzAQDyQXtNezcEr9dz-4">
          <mxGeometry relative="1" as="geometry" />
        </mxCell>
        <mxCell id="Doy7S56j4sTmwYwDbzZg-4" style="edgeStyle=orthogonalEdgeStyle;rounded=0;orthogonalLoop=1;jettySize=auto;html=1;entryX=1;entryY=0.5;entryDx=0;entryDy=0;" edge="1" parent="1" source="Doy7S56j4sTmwYwDbzZg-1" target="DgRzAQDyQXtNezcEr9dz-3">
          <mxGeometry relative="1" as="geometry">
            <Array as="points">
              <mxPoint x="460" y="340" />
              <mxPoint x="460" y="265" />
            </Array>
          </mxGeometry>
        </mxCell>
        <mxCell id="Doy7S56j4sTmwYwDbzZg-1" value="Login ?" style="html=1;whiteSpace=wrap;" vertex="1" parent="1">
          <mxGeometry x="330" y="310" width="110" height="50" as="geometry" />
        </mxCell>
        <mxCell id="Doy7S56j4sTmwYwDbzZg-6" style="edgeStyle=orthogonalEdgeStyle;rounded=0;orthogonalLoop=1;jettySize=auto;html=1;entryX=0.5;entryY=0;entryDx=0;entryDy=0;" edge="1" parent="1" source="Doy7S56j4sTmwYwDbzZg-8" target="Doy7S56j4sTmwYwDbzZg-10">
          <mxGeometry relative="1" as="geometry" />
        </mxCell>
        <mxCell id="Doy7S56j4sTmwYwDbzZg-7" style="edgeStyle=orthogonalEdgeStyle;rounded=0;orthogonalLoop=1;jettySize=auto;html=1;entryX=0.5;entryY=0;entryDx=0;entryDy=0;" edge="1" parent="1" source="Doy7S56j4sTmwYwDbzZg-8" target="Doy7S56j4sTmwYwDbzZg-12">
          <mxGeometry relative="1" as="geometry" />
        </mxCell>
        <mxCell id="Doy7S56j4sTmwYwDbzZg-8" value="Private oder Public Schlüssel" style="html=1;whiteSpace=wrap;" vertex="1" parent="1">
          <mxGeometry x="40" y="165" width="110" height="50" as="geometry" />
        </mxCell>
        <mxCell id="Doy7S56j4sTmwYwDbzZg-9" style="edgeStyle=orthogonalEdgeStyle;rounded=0;orthogonalLoop=1;jettySize=auto;html=1;entryX=0.5;entryY=0;entryDx=0;entryDy=0;" edge="1" parent="1" source="Doy7S56j4sTmwYwDbzZg-10" target="Doy7S56j4sTmwYwDbzZg-14">
          <mxGeometry relative="1" as="geometry" />
        </mxCell>
        <mxCell id="Doy7S56j4sTmwYwDbzZg-10" value="Termin Bearbeiten" style="html=1;whiteSpace=wrap;" vertex="1" parent="1">
          <mxGeometry x="40" y="235" width="110" height="50" as="geometry" />
        </mxCell>
        <mxCell id="Doy7S56j4sTmwYwDbzZg-11" style="edgeStyle=orthogonalEdgeStyle;rounded=0;orthogonalLoop=1;jettySize=auto;html=1;entryX=0.5;entryY=0;entryDx=0;entryDy=0;" edge="1" parent="1" source="Doy7S56j4sTmwYwDbzZg-12" target="Doy7S56j4sTmwYwDbzZg-15">
          <mxGeometry relative="1" as="geometry" />
        </mxCell>
        <mxCell id="Doy7S56j4sTmwYwDbzZg-12" value="Termin Anzeigen" style="html=1;whiteSpace=wrap;" vertex="1" parent="1">
          <mxGeometry x="190" y="235" width="110" height="50" as="geometry" />
        </mxCell>
        <mxCell id="Doy7S56j4sTmwYwDbzZg-13" style="edgeStyle=orthogonalEdgeStyle;rounded=0;orthogonalLoop=1;jettySize=auto;html=1;entryX=0;entryY=0.5;entryDx=0;entryDy=0;" edge="1" parent="1" source="Doy7S56j4sTmwYwDbzZg-14" target="Doy7S56j4sTmwYwDbzZg-15">
          <mxGeometry relative="1" as="geometry" />
        </mxCell>
        <mxCell id="Doy7S56j4sTmwYwDbzZg-14" value="Datenbank updaten" style="html=1;whiteSpace=wrap;" vertex="1" parent="1">
          <mxGeometry x="40" y="315" width="110" height="50" as="geometry" />
        </mxCell>
        <mxCell id="Doy7S56j4sTmwYwDbzZg-21" style="edgeStyle=orthogonalEdgeStyle;rounded=0;orthogonalLoop=1;jettySize=auto;html=1;entryX=0.5;entryY=0;entryDx=0;entryDy=0;" edge="1" parent="1" source="Doy7S56j4sTmwYwDbzZg-15" target="Doy7S56j4sTmwYwDbzZg-19">
          <mxGeometry relative="1" as="geometry" />
        </mxCell>
        <mxCell id="Doy7S56j4sTmwYwDbzZg-15" value="zurück zur startseite" style="html=1;whiteSpace=wrap;" vertex="1" parent="1">
          <mxGeometry x="190" y="315" width="110" height="50" as="geometry" />
        </mxCell>
        <mxCell id="Doy7S56j4sTmwYwDbzZg-17" style="edgeStyle=orthogonalEdgeStyle;rounded=0;orthogonalLoop=1;jettySize=auto;html=1;entryX=0.5;entryY=0;entryDx=0;entryDy=0;" edge="1" parent="1" source="Doy7S56j4sTmwYwDbzZg-16" target="DgRzAQDyQXtNezcEr9dz-3">
          <mxGeometry relative="1" as="geometry" />
        </mxCell>
        <mxCell id="Doy7S56j4sTmwYwDbzZg-16" value="" style="ellipse;fillColor=strokeColor;html=1;" vertex="1" parent="1">
          <mxGeometry x="365" y="80" width="40" height="40" as="geometry" />
        </mxCell>
        <mxCell id="Doy7S56j4sTmwYwDbzZg-19" value="" style="ellipse;html=1;shape=endState;fillColor=#000000;strokeColor=#ff0000;" vertex="1" parent="1">
          <mxGeometry x="230" y="410" width="30" height="30" as="geometry" />
        </mxCell>
      </root>
    </mxGraphModel>
  </diagram>
</mxfile>
